<?xml version="1.0" standalone="no"?>
<!DOCTYPE svg PUBLIC "-//W3C//DTD SVG 20010904//EN"
 "http://www.w3.org/TR/2001/REC-SVG-20010904/DTD/svg10.dtd">
<svg version="1.0" xmlns="http://www.w3.org/2000/svg"
 width="512.000000pt" height="512.000000pt" viewBox="0 0 512.000000 512.000000"
 preserveAspectRatio="xMidYMid meet">
<metadata>
Created by potrace 1.15, written by Peter Selinger 2001-2017
</metadata>
<g transform="translate(0.000000,512.000000) scale(0.100000,-0.100000)"
fill="#000000" stroke="none">
<path d="M2695 4391 l-1020 -418 -3 -289 -2 -289 100 100 99 99 3 139 3 138
855 360 c470 199 865 365 878 370 20 8 42 -15 252 -267 l230 -276 0 -1729 0
-1729 240 0 240 0 0 100 0 100 -140 0 -140 0 0 1632 0 1631 -280 374 c-154
205 -283 373 -288 372 -4 0 -466 -189 -1027 -418z"/>
<path d="M3630 2470 l0 -1871 143 3 142 3 3 1702 2 1702 -141 165 c-77 91
-142 166 -145 166 -2 0 -4 -842 -4 -1870z"/>
<path d="M1668 3272 l-748 -327 0 -1072 0 -1073 -185 0 -185 0 0 -100 0 -100
285 0 285 0 2 1122 3 1122 645 277 c355 152 650 274 657 270 6 -3 131 -91 277
-196 l265 -190 0 -1202 1 -1203 240 0 240 0 0 100 0 100 -140 0 -140 0 0 1120
0 1120 -373 280 c-206 154 -376 280 -378 279 -2 0 -340 -147 -751 -327z"/>
<path d="M2420 1866 l0 -1266 140 0 140 0 0 1173 0 1174 -112 75 c-62 41 -125
83 -140 92 l-28 18 0 -1266z"/>
<path d="M1713 2707 l-323 -142 0 -187 c0 -104 3 -188 8 -188 4 0 151 63 327
138 l320 138 3 192 c1 106 -1 192 -5 192 -5 -1 -153 -65 -330 -143z"/>
<path d="M1708 1908 l-318 -101 0 -183 c0 -142 3 -182 13 -179 6 2 125 36 262
75 138 39 280 80 318 91 l67 20 0 189 c0 146 -3 190 -12 189 -7 0 -156 -46
-330 -101z"/>
<path d="M1715 1175 l-320 -92 -3 -147 -3 -146 331 0 330 0 0 240 c0 132 -3
240 -7 239 -5 -1 -152 -43 -328 -94z"/>
<path d="M550 425 l0 -95 2010 0 2010 0 0 95 0 95 -2010 0 -2010 0 0 -95z"/>
</g>
</svg>
